<svg width="32" height="32" viewBox="0 0 32 32" fill="none" xmlns="http://www.w3.org/2000/svg">
<path fill-rule="evenodd" clip-rule="evenodd" d="M8.40907 23.1529C8.43154 23.1197 8.43389 23.0769 8.41514 23.0413C8.39639 23.0061 8.3596 22.9842 8.31955 22.9842C7.47131 22.9842 4.16658 22.9842 1.98579 22.9842C1.4588 22.9842 0.95346 22.7748 0.581054 22.4018C0.208597 22.0289 -0.000457813 21.5234 7.52813e-07 20.9966C0.00224263 18.2518 0.00621697 13.4496 0.00759267 11.7769C0.00789838 11.3871 0.110108 11.0044 0.30403 10.6661C1.0035 9.44735 2.76841 6.3714 3.68748 4.76948C4.04404 4.14787 4.70575 3.7647 5.42218 3.7647H25.9531C26.3852 3.7647 26.7832 3.9996 26.9926 4.37715C27.202 4.75522 27.1897 5.21683 26.9606 5.58317C26.1986 6.80142 25.2474 8.32234 24.7527 9.11311C24.6854 9.22062 24.6818 9.35615 24.7433 9.46723C24.8048 9.5783 24.9217 9.64708 25.0485 9.64708C26.1451 9.64708 28.4418 9.64708 30.0508 9.64708C31.0173 9.64708 31.8009 10.4307 31.8009 11.3973V20.2425C31.8009 21.231 31.5504 22.2036 31.0728 23.0688C30.4712 24.1592 29.4948 25.704 28.8791 26.8199C28.3972 27.6932 27.4787 28.2353 26.4813 28.2353H7.21252C6.77093 28.2353 6.36545 27.9912 6.15864 27.6009C5.95182 27.2112 5.97751 26.7383 6.22533 26.373C7.06538 25.1344 8.07386 23.6471 8.40907 23.1529Z" fill="#E27152"/>
<path fill-rule="evenodd" clip-rule="evenodd" d="M11.3788 22.225C10.9758 22.225 10.5981 22.4212 10.3659 22.7503C9.72552 23.6588 8.41667 25.5155 7.75797 26.4499C7.68098 26.5595 7.6713 26.7022 7.7328 26.8209C7.79429 26.9396 7.91673 27.014 8.05028 27.014C10.9999 27.014 22.4431 27.014 26.0359 27.014C26.6982 27.014 27.3099 26.6599 27.6401 26.0856C28.1103 25.2679 28.918 24.0792 29.4021 23.2369C29.5223 23.028 29.5219 22.7707 29.4012 22.5623C29.2805 22.3534 29.0577 22.225 28.8166 22.225C25.1843 22.225 14.1603 22.225 11.3788 22.225Z" fill="#FFFBF9"/>
<path fill-rule="evenodd" clip-rule="evenodd" d="M6.3075 17.0743C5.63009 17.0763 4.99111 17.3892 4.57387 17.9232C3.97834 18.6849 3.09861 19.8104 2.44531 20.646C2.28257 20.8539 2.25281 21.1367 2.36862 21.3741C2.48439 21.6121 2.72554 21.7624 2.98978 21.7624H9.20655C9.42605 21.2992 9.89292 21.0037 10.4057 21.0037C12.8643 21.0037 20.0249 21.0037 22.4206 21.0037C22.9121 21.0037 23.3683 20.7479 23.6249 20.3286C24.0808 19.5842 24.8094 18.3945 25.2595 17.6592C25.3402 17.5273 25.3432 17.3622 25.2675 17.2277C25.1917 17.0926 25.049 17.0096 24.8944 17.0101C21.7686 17.0208 9.94678 17.0616 6.3075 17.0743Z" fill="#FFFBF9"/>
<path fill-rule="evenodd" clip-rule="evenodd" d="M25.403 20.0107C25.2783 20.2109 25.2721 20.4631 25.3867 20.6695C25.5012 20.8758 25.7187 21.0037 25.9546 21.0037H29.441C29.71 21.0037 29.968 20.8967 30.1582 20.7067C30.3485 20.5161 30.4553 20.2583 30.4553 19.9893C30.4553 18.0404 30.4553 13.7951 30.4553 11.8625C30.4553 11.3132 30.0103 10.8684 29.4612 10.8684C26.2779 10.8684 16.3601 10.8684 13.1975 10.8684C12.5875 10.8684 12.0198 11.1802 11.6926 11.6948C11.1156 12.6028 10.444 14.0498 9.87588 14.9435C9.77494 15.102 9.76852 15.3032 9.85911 15.4683C9.94966 15.6334 10.1229 15.7358 10.3111 15.7358H25.754C26.2199 15.7358 26.6491 15.9885 26.8754 16.3956C27.1016 16.8028 27.0893 17.3006 26.8432 17.6964C26.3527 18.4847 25.8085 19.359 25.403 20.0107Z" fill="#FFFBF9"/>
<path fill-rule="evenodd" clip-rule="evenodd" d="M22.563 9.64707C22.6966 9.64707 22.8211 9.57931 22.8941 9.46773C23.2796 8.8772 24.5243 6.97109 25.2044 5.92964C25.2946 5.79156 25.3019 5.61475 25.2233 5.47005C25.1448 5.32484 24.9931 5.23465 24.8281 5.23465C21.8312 5.23465 11.5223 5.23465 7.23381 5.23465C6.73123 5.23465 6.24927 5.43387 5.89388 5.78951C5.53855 6.14464 5.33887 6.62665 5.33887 7.12954C5.33887 9.01578 5.33887 11.9007 5.33887 13.8307C5.33887 14.3586 5.555 14.863 5.93694 15.2273C6.31887 15.5916 6.83323 15.7832 7.36038 15.7582C7.36048 15.7582 7.60872 15.7582 7.60872 15.7582C7.61524 15.7047 9.61423 12.2538 10.7175 10.5616C11.0898 9.99099 11.7252 9.64707 12.4067 9.64707C14.9834 9.64707 21.3189 9.64707 22.563 9.64707Z" fill="#FFFBF9"/>
</svg>
